<?xml version="1.0" encoding="UTF-8"?>
<svg version="1.1" viewBox="0 0 800 800" width="800" height="800" xmlns="http://www.w3.org/2000/svg">
<path transform="translate(0)" d="m0 0h800v800h-800z" fill="#FCFDFC"/>
<path transform="translate(230,209)" d="m0 0h14l16 4 12 6 10 8 8 10 7 14 3 14v22l16 1v1l-16 1v13l1 13 4 4 1 2v9l-3 5-6 3-8-1-5-4-2-5 1-8 5-5 1-27-103 1-1 26 4 2 3 4v8l-3 5-4 3-7 1-6-3-3-3-1-3v-7l3-5 4-2v-27h-25l-1 29-13 247-1 7 13-3 43-7 47-6 52-5 42-3 42-2 31-1h23v1l-57 4-56 6-57 8-58 10-50 10-34 8-3-1-6-7-14-9-13-5-6-1 1-13 38-230 9-54 2-1 9 1 36 3 6 1v-15l4-14 7-12 9-10 9-7 13-6z" fill="#18489F"/>
<path transform="translate(658,405)" d="m0 0h24l15 5 10 7 8 8 6 10 4 11 2 13v10l-2 12-5 13-6 9-5 6-10 7-12 5-11 2h-15l-12-2-10-4-3-2-1 56h-38v-164h38l1 2-1 5 14-7z" fill="#18489F"/>
<path transform="translate(234,342)" d="m0 0h12l16 2 15 5 11 6-10 24-5 11-16-7-7-2h-15l-8 4h-2l-2 6v8l2 4 8 4 22 5 14 6 9 7 8 9 6 12 3 14v10l-3 14-6 12-7 9-10 8-10 5-14 4-8 1h-17l-19-3-15-5-13-7-11-8 5-9 10-14 6-9 11 7 13 6 14 3h11l8-3 6-5 2-5v-9l-4-8-5-4-10-4-17-4-13-5-10-7-7-7-6-12-1-5v-19l4-12 6-10 4-5 9-7 14-7 12-3z" fill="#18489E"/>
<path transform="translate(311,337)" d="m0 0h43l1 83 7-8 10-5 9-2h19l13 3 10 5 7 6 6 9 4 14v79h-43l-1-68-3-8-5-4-7-2h-7l-9 4-5 5-4 7-1 3-1 63h-43z" fill="#18489F"/>
<path transform="translate(510,403)" d="m0 0h14l12 2 13 5 9 6 5 4 7 9 7 14 3 16v10l-3 16-8 16-8 9-14 9-11 4-14 2-18-1-14-4-11-6-10-9-7-9-4-8-3-11-1-7v-12l3-14 4-10 7-10 8-8 11-7 16-5z" fill="#18489F"/>
<path transform="translate(226,220)" d="m0 0h22l12 4 11 7 8 8 5 8 5 14 1 14-1 11-20-1-78-7-6-1v-13l3-12 5-9 8-10 10-7 8-4z" fill="#FDFEFD"/>
<path transform="translate(126,277)" d="m0 0h7v14l-17 283-2 4-7-6-3-3 6-99-17 88-1 4-6-1-1-3 34-237 6-42z" fill="#FDFEFD"/>
<path transform="translate(480,549)" d="m0 0h60l24 1v1l-68 2-44 3-50 5-55 8-51 9-47 10-50 12-48 13-33 10-2-4 1-18 36-9 47-10 48-9 59-9 67-8 46-4 33-2z" fill="#F15F22"/>
<path transform="translate(230,209)" d="m0 0h14l16 4 12 6 10 8 8 10 7 14 3 14v22l16 1v1l-16 1v13l1 13 4 4 1 2v9l-3 5-6 3-8-1-5-4-2-5 1-8 5-5 1-27-103 1-1 26 4 2 3 4v8l-3 5-4 3-7 1-6-3-3-3-1-3v-7l3-5 4-2-1-40 1-15 4-14 7-12 9-10 9-7 13-6zm-4 11-12 4-10 7-5 4-8 11-4 9-2 9v13l17 2 79 7h8l1-18-3-14-6-12-9-10-10-7-10-4-4-1z" fill="#EF5E22"/>
<path transform="translate(548,316)" d="m0 0h9l7 3 4 5 1 9-3 5-5 5h-2l6 9v2h2l2-7 10 3-2 8-2 6 10 12-1 2h-12l-6-5-7 4-5 1h-10l-8-3-5-5-3-6v-7l4-8 7-6h2l-5-10v-7l3-5 5-4z" fill="#F15F22"/>
<path transform="translate(596,317)" d="m0 0h5l11 12 14 16 5-4 9-11 7-7 5-6h5v60l-1 1h-11l-1-1v-30l-1-2-12 13-1 2h-2v2l-4-1-7-8-8-9-1 34h-12z" fill="#F15F22"/>
<path transform="translate(510,441)" d="m0 0h14l8 4 6 7 3 9-1 11-5 8-7 6-7 2h-7l-9-3-7-6-4-8-1-9 3-9 4-6z" fill="#FDFEFD"/>
<path transform="translate(655,441)" d="m0 0h9l8 3 6 5 5 10v11l-3 7-6 7-8 4h-13l-6-3-7-6-4-9v-10l3-8 5-6 7-4z" fill="#FDFEFD"/>
<path transform="translate(452,336)" d="m0 0 10 1 9 6 4 7 1 11-4 9-5 5-7 3h-11l-9-5v-2h-2l-4-9v-10l4-8 6-5z" fill="#F15F22"/>
<path transform="translate(680,337)" d="m0 0h11l8 4 5 6 2 7v7l-5 1h-23l5 5h7l7-2 6 7-5 4-8 2h-7l-10-4-5-6-2-5v-12l3-6 8-7z" fill="#F15F22"/>
<path transform="translate(372,317)" d="m0 0h15l13 18 4-5 10-13h14l-2 4-8 11-10 14-1 3v28l-1 1h-12l-1-31-13-18-8-11z" fill="#F15F22"/>
<path transform="translate(482,337)" d="m0 0h12l1 27 5 3 6-1 1-17v-9l1-3h11v41h-11l-2-2-6 2-9-1-5-3-4-7z" fill="#F15F22"/>
<path transform="translate(186,277)" d="m0 0 28 2 67 6 7 1 1 3h-103l-1-2v-9z" fill="#18489F"/>
<path transform="translate(451,347)" d="m0 0h8l5 4 1 3v7l-5 6-2 1h-6l-6-4-1-2v-10z" fill="#FDFEFD"/>
<path transform="translate(546,350)" d="m0 0 4 2 9 11-4 4-2 1h-8l-4-3-1-7 3-5z" fill="#FDFEFD"/>
<path transform="translate(551,325)" d="m0 0 5 1 2 2-1 5-5 4-4-5-1-4z" fill="#FDFEFD"/>
<path transform="translate(682,347)" d="m0 0h8l4 4v2h-16l2-5z" fill="#FDFEFD"/>
</svg>
